<svg xmlns="http://www.w3.org/2000/svg" xmlns:xlink="http://www.w3.org/1999/xlink" width="400" zoomAndPan="magnify" viewBox="0 0 300 149.999998" height="200" preserveAspectRatio="xMidYMid meet" version="1.0"><defs><g/><clipPath id="id1"><path d="M 6.273438 38 L 76.773438 38 L 76.773438 144.484375 L 6.273438 144.484375 Z M 6.273438 38 " clip-rule="nonzero"/></clipPath></defs><g clip-path="url(#id1)"><path fill="#ffffff" d="M 39.800781 128.789062 C 40.390625 128.789062 40.867188 128.3125 40.867188 127.726562 L 40.867188 88.863281 L 60.65625 135.855469 C 60.828125 136.261719 61.222656 136.507812 61.636719 136.507812 C 61.773438 136.507812 61.914062 136.480469 62.046875 136.421875 C 62.589844 136.195312 62.84375 135.574219 62.617188 135.03125 L 41.402344 84.65625 L 49.4375 84.65625 C 50.023438 84.65625 50.5 84.183594 50.5 83.59375 C 50.5 83.007812 50.023438 82.535156 49.4375 82.535156 L 30.167969 82.535156 C 29.582031 82.535156 29.105469 83.007812 29.105469 83.59375 C 29.105469 84.183594 29.582031 84.65625 30.167969 84.65625 L 38.203125 84.65625 L 16.988281 135.03125 C 16.761719 135.574219 17.015625 136.195312 17.554688 136.421875 C 17.691406 136.480469 17.832031 136.507812 17.96875 136.507812 C 18.382812 136.507812 18.777344 136.261719 18.949219 135.855469 L 38.738281 88.863281 L 38.738281 127.726562 C 38.738281 128.3125 39.214844 128.789062 39.800781 128.789062 Z M 62.171875 52.785156 C 62.171875 50.429688 60.257812 48.515625 57.898438 48.515625 C 55.539062 48.515625 53.625 50.429688 53.625 52.785156 C 53.625 55.144531 55.539062 57.054688 57.898438 57.054688 C 60.257812 57.054688 62.171875 55.144531 62.171875 52.785156 Z M 39.800781 45.957031 C 33.625 45.957031 28.617188 50.960938 28.617188 57.132812 C 22.390625 57.132812 17.351562 62.214844 17.433594 68.453125 C 17.511719 74.59375 22.636719 79.480469 28.785156 79.480469 L 50.820312 79.480469 C 56.96875 79.480469 62.089844 74.59375 62.171875 68.453125 C 62.25 62.214844 57.214844 57.132812 50.988281 57.132812 C 50.988281 50.960938 45.980469 45.957031 39.800781 45.957031 Z M 76.378906 57.34375 L 64.25 65.910156 C 64.390625 66.675781 64.460938 67.464844 64.460938 68.269531 C 64.460938 69.074219 64.390625 69.859375 64.25 70.628906 L 76.378906 79.195312 C 76.546875 79.316406 76.78125 79.191406 76.78125 78.984375 L 76.78125 57.550781 C 76.78125 57.34375 76.546875 57.222656 76.378906 57.34375 Z M 74.109375 84.511719 L 74.109375 143.46875 C 74.109375 144.011719 73.667969 144.453125 73.125 144.453125 L 7.257812 144.453125 C 6.714844 144.453125 6.277344 144.011719 6.277344 143.46875 L 6.277344 38.996094 C 6.277344 38.453125 6.714844 38.015625 7.257812 38.015625 L 73.125 38.015625 C 73.667969 38.015625 74.109375 38.453125 74.109375 38.996094 L 74.109375 50.351562 C 74.109375 50.894531 73.667969 51.332031 73.125 51.332031 C 72.582031 51.332031 72.144531 50.894531 72.144531 50.351562 L 72.144531 39.976562 L 8.242188 39.976562 L 8.242188 142.488281 L 72.144531 142.488281 L 72.144531 84.511719 C 72.144531 83.96875 72.582031 83.53125 73.125 83.53125 C 73.667969 83.53125 74.109375 83.96875 74.109375 84.511719 " fill-opacity="1" fill-rule="nonzero"/></g><g fill="#ffffff" fill-opacity="1"><g transform="translate(80.887695, 79.665261)"><g><path d="M 26.09375 -40.078125 L 26.09375 -32.0625 L 12.046875 -32.0625 L 12.046875 -24.09375 L 25.015625 -24.09375 L 25.015625 -16.078125 L 12.046875 -16.078125 L 12.046875 0 L 2.921875 0 L 2.921875 -40.078125 Z M 26.09375 -40.078125 "/></g></g></g><g fill="#ffffff" fill-opacity="1"><g transform="translate(109.348968, 79.665261)"><g><path d="M 12.046875 -40.078125 L 12.046875 0 L 2.921875 0 L 2.921875 -40.078125 Z M 12.046875 -40.078125 "/></g></g></g><g fill="#ffffff" fill-opacity="1"><g transform="translate(125.231027, 79.665261)"><g><path d="M 12.046875 -40.078125 L 12.046875 -8.015625 L 25.84375 -8.015625 L 25.84375 0 L 2.921875 0 L 2.921875 -40.078125 Z M 12.046875 -40.078125 "/></g></g></g><g fill="#ffffff" fill-opacity="1"><g transform="translate(153.595175, 79.665261)"><g><path d="M 36.046875 0 L 34.15625 -23.75 L 33.90625 -23.75 L 25.703125 -0.25 L 20.25 -0.25 L 12.046875 -23.75 L 11.796875 -23.75 L 9.90625 0 L 0.78125 0 L 4.375 -40.078125 L 14.09375 -40.078125 L 22.984375 -16.953125 L 31.859375 -40.078125 L 41.578125 -40.078125 L 45.171875 0 Z M 36.046875 0 "/></g></g></g><g fill="#ffffff" fill-opacity="1"><g transform="translate(80.887695, 139.939275)"><g><path d="M 0.09375 0 C 0.09375 0 1.613281 -3.632812 4.65625 -10.90625 C 4.65625 -10.90625 5.1875 -10.90625 6.25 -10.90625 C 6.25 -10.90625 7.773438 -7.269531 10.828125 0 C 10.828125 0 10.082031 0 8.59375 0 C 8.59375 0 8.203125 -0.9375 7.421875 -2.8125 C 7.421875 -2.8125 6.128906 -2.8125 3.546875 -2.8125 C 3.546875 -2.8125 3.144531 -1.875 2.34375 0 C 2.34375 0 1.59375 0 0.09375 0 Z M 4.28125 -4.75 C 4.28125 -4.75 5.0625 -4.75 6.625 -4.75 C 6.625 -4.75 6.234375 -5.851562 5.453125 -8.0625 C 5.453125 -8.0625 5.0625 -6.957031 4.28125 -4.75 Z M 4.28125 -4.75 "/></g></g></g><g fill="#ffffff" fill-opacity="1"><g transform="translate(93.13822, 139.939275)"><g/></g></g><g fill="#ffffff" fill-opacity="1"><g transform="translate(98.598352, 139.939275)"><g><path d="M 0.796875 2.734375 C 0.796875 2.734375 0.796875 -0.90625 0.796875 -8.1875 C 0.796875 -8.1875 1.394531 -8.1875 2.59375 -8.1875 C 2.59375 -8.1875 2.59375 -7.863281 2.59375 -7.21875 C 3.238281 -7.988281 4.132812 -8.375 5.28125 -8.375 C 6.0625 -8.375 6.757812 -8.191406 7.375 -7.828125 C 8 -7.460938 8.484375 -6.953125 8.828125 -6.296875 C 9.179688 -5.648438 9.359375 -4.921875 9.359375 -4.109375 C 9.359375 -3.296875 9.179688 -2.5625 8.828125 -1.90625 C 8.484375 -1.25 8 -0.734375 7.375 -0.359375 C 6.75 0.00390625 6.046875 0.1875 5.265625 0.1875 C 4.765625 0.1875 4.316406 0.113281 3.921875 -0.03125 C 3.523438 -0.1875 3.140625 -0.429688 2.765625 -0.765625 L 2.765625 2.734375 Z M 4.984375 -6.5625 C 4.328125 -6.5625 3.769531 -6.320312 3.3125 -5.84375 C 2.863281 -5.375 2.640625 -4.78125 2.640625 -4.0625 C 2.640625 -3.363281 2.867188 -2.78125 3.328125 -2.3125 C 3.796875 -1.84375 4.367188 -1.609375 5.046875 -1.609375 C 5.703125 -1.609375 6.253906 -1.84375 6.703125 -2.3125 C 7.160156 -2.789062 7.390625 -3.378906 7.390625 -4.078125 C 7.390625 -4.796875 7.160156 -5.390625 6.703125 -5.859375 C 6.253906 -6.328125 5.679688 -6.5625 4.984375 -6.5625 Z M 4.984375 -6.5625 "/></g></g></g><g fill="#ffffff" fill-opacity="1"><g transform="translate(109.69552, 139.939275)"><g><path d="M 0.796875 0 C 0.796875 0 0.796875 -2.726562 0.796875 -8.1875 C 0.796875 -8.1875 1.394531 -8.1875 2.59375 -8.1875 C 2.59375 -8.1875 2.59375 -7.921875 2.59375 -7.390625 C 2.851562 -7.765625 3.109375 -8.019531 3.359375 -8.15625 C 3.609375 -8.300781 3.945312 -8.375 4.375 -8.375 L 4.515625 -8.375 C 4.515625 -8.375 4.515625 -7.742188 4.515625 -6.484375 C 3.347656 -6.453125 2.765625 -5.804688 2.765625 -4.546875 C 2.765625 -4.546875 2.765625 -3.03125 2.765625 0 C 2.765625 0 2.109375 0 0.796875 0 Z M 0.796875 0 "/></g></g></g><g fill="#ffffff" fill-opacity="1"><g transform="translate(115.890918, 139.939275)"><g><path d="M 0.796875 0 C 0.796875 0 0.796875 -2.726562 0.796875 -8.1875 C 0.796875 -8.1875 1.453125 -8.1875 2.765625 -8.1875 C 2.765625 -8.1875 2.765625 -5.457031 2.765625 0 C 2.765625 0 2.109375 0 0.796875 0 Z M 0.796875 -9.0625 C 0.796875 -9.0625 0.796875 -9.675781 0.796875 -10.90625 C 0.796875 -10.90625 1.453125 -10.90625 2.765625 -10.90625 C 2.765625 -10.90625 2.765625 -10.289062 2.765625 -9.0625 C 2.765625 -9.0625 2.109375 -9.0625 0.796875 -9.0625 Z M 0.796875 -9.0625 "/></g></g></g><g fill="#ffffff" fill-opacity="1"><g transform="translate(120.774371, 139.939275)"><g><path d="M 3.34375 0 C 3.34375 0 2.242188 -2.726562 0.046875 -8.1875 C 0.046875 -8.1875 0.773438 -8.1875 2.234375 -8.1875 C 2.234375 -8.1875 2.859375 -6.378906 4.109375 -2.765625 C 4.109375 -2.765625 4.734375 -4.570312 5.984375 -8.1875 C 5.984375 -8.1875 6.722656 -8.1875 8.203125 -8.1875 C 8.203125 -8.1875 7.101562 -5.457031 4.90625 0 C 4.90625 0 4.382812 0 3.34375 0 Z M 3.34375 0 "/></g></g></g><g fill="#ffffff" fill-opacity="1"><g transform="translate(130.336126, 139.939275)"><g><path d="M 9.046875 -8.1875 C 9.046875 -8.1875 9.046875 -5.457031 9.046875 0 C 9.046875 0 8.445312 0 7.25 0 C 7.25 0 7.25 -0.351562 7.25 -1.0625 C 6.851562 -0.613281 6.445312 -0.289062 6.03125 -0.09375 C 5.613281 0.09375 5.113281 0.1875 4.53125 0.1875 C 3.75 0.1875 3.039062 0.0078125 2.40625 -0.34375 C 1.78125 -0.707031 1.289062 -1.210938 0.9375 -1.859375 C 0.582031 -2.515625 0.40625 -3.25 0.40625 -4.0625 C 0.40625 -4.882812 0.582031 -5.625 0.9375 -6.28125 C 1.300781 -6.9375 1.796875 -7.445312 2.421875 -7.8125 C 3.054688 -8.1875 3.773438 -8.375 4.578125 -8.375 C 5.171875 -8.375 5.679688 -8.269531 6.109375 -8.0625 C 6.535156 -7.851562 6.914062 -7.53125 7.25 -7.09375 L 7.25 -8.1875 Z M 4.75 -6.5625 C 4.070312 -6.5625 3.507812 -6.320312 3.0625 -5.84375 C 2.613281 -5.363281 2.390625 -4.753906 2.390625 -4.015625 C 2.390625 -3.296875 2.613281 -2.710938 3.0625 -2.265625 C 3.507812 -1.828125 4.09375 -1.609375 4.8125 -1.609375 C 5.53125 -1.609375 6.101562 -1.832031 6.53125 -2.28125 C 6.96875 -2.738281 7.1875 -3.332031 7.1875 -4.0625 C 7.1875 -4.800781 6.957031 -5.398438 6.5 -5.859375 C 6.050781 -6.328125 5.46875 -6.5625 4.75 -6.5625 Z M 4.75 -6.5625 "/></g></g></g><g fill="#ffffff" fill-opacity="1"><g transform="translate(141.512579, 139.939275)"><g><path d="M 1.15625 0 C 1.15625 0 1.15625 -2.128906 1.15625 -6.390625 C 1.15625 -6.390625 0.832031 -6.390625 0.1875 -6.390625 C 0.1875 -6.390625 0.1875 -6.988281 0.1875 -8.1875 C 0.1875 -8.1875 0.507812 -8.1875 1.15625 -8.1875 C 1.15625 -8.1875 1.15625 -9.09375 1.15625 -10.90625 C 1.15625 -10.90625 1.804688 -10.90625 3.109375 -10.90625 C 3.109375 -10.90625 3.109375 -10 3.109375 -8.1875 C 3.109375 -8.1875 3.503906 -8.1875 4.296875 -8.1875 C 4.296875 -8.1875 4.296875 -7.585938 4.296875 -6.390625 C 4.296875 -6.390625 3.898438 -6.390625 3.109375 -6.390625 C 3.109375 -6.390625 3.109375 -4.257812 3.109375 0 C 3.109375 0 2.457031 0 1.15625 0 Z M 1.15625 0 "/></g></g></g><g fill="#ffffff" fill-opacity="1"><g transform="translate(147.311507, 139.939275)"><g><path d="M 8.875 -3.21875 C 8.875 -3.21875 6.757812 -3.21875 2.53125 -3.21875 C 2.65625 -2.71875 2.914062 -2.320312 3.3125 -2.03125 C 3.71875 -1.75 4.210938 -1.609375 4.796875 -1.609375 C 5.203125 -1.609375 5.539062 -1.664062 5.8125 -1.78125 C 6.082031 -1.90625 6.34375 -2.117188 6.59375 -2.421875 L 8.734375 -2.421875 C 8.617188 -2.054688 8.40625 -1.675781 8.09375 -1.28125 C 7.25 -0.300781 6.164062 0.1875 4.84375 0.1875 C 4.226562 0.1875 3.644531 0.078125 3.09375 -0.140625 C 2.550781 -0.359375 2.082031 -0.65625 1.6875 -1.03125 C 1.300781 -1.40625 0.988281 -1.851562 0.75 -2.375 C 0.519531 -2.90625 0.40625 -3.46875 0.40625 -4.0625 C 0.40625 -4.84375 0.597656 -5.5625 0.984375 -6.21875 C 1.367188 -6.882812 1.890625 -7.410156 2.546875 -7.796875 C 3.210938 -8.179688 3.9375 -8.375 4.71875 -8.375 C 5.519531 -8.375 6.242188 -8.179688 6.890625 -7.796875 C 7.535156 -7.421875 8.039062 -6.898438 8.40625 -6.234375 C 8.769531 -5.566406 8.953125 -4.8125 8.953125 -3.96875 C 8.953125 -3.695312 8.925781 -3.445312 8.875 -3.21875 Z M 2.484375 -4.953125 L 7.015625 -4.953125 C 6.890625 -5.472656 6.628906 -5.867188 6.234375 -6.140625 C 5.847656 -6.421875 5.351562 -6.5625 4.75 -6.5625 C 4.164062 -6.5625 3.675781 -6.421875 3.28125 -6.140625 C 2.894531 -5.867188 2.628906 -5.472656 2.484375 -4.953125 Z M 2.484375 -4.953125 "/></g></g></g><g fill="#ffffff" fill-opacity="1"><g transform="translate(157.997789, 139.939275)"><g/></g></g><g fill="#ffffff" fill-opacity="1"><g transform="translate(163.457924, 139.939275)"><g><path d="M 2.125 0 C 2.125 0 2.125 -2.988281 2.125 -8.96875 C 2.125 -8.96875 1.445312 -8.96875 0.09375 -8.96875 C 0.09375 -8.96875 0.09375 -9.613281 0.09375 -10.90625 C 0.09375 -10.90625 2.117188 -10.90625 6.171875 -10.90625 C 6.171875 -10.90625 6.171875 -10.257812 6.171875 -8.96875 C 6.171875 -8.96875 5.492188 -8.96875 4.140625 -8.96875 C 4.140625 -8.96875 4.140625 -5.976562 4.140625 0 C 4.140625 0 3.46875 0 2.125 0 Z M 2.125 0 "/></g></g></g><g fill="#ffffff" fill-opacity="1"><g transform="translate(171.058973, 139.939275)"><g><path d="M 4.3125 0 C 4.3125 0 2.894531 -3.632812 0.0625 -10.90625 C 0.0625 -10.90625 0.769531 -10.90625 2.1875 -10.90625 C 2.1875 -10.90625 3.164062 -8.140625 5.125 -2.609375 C 5.125 -2.609375 6.101562 -5.375 8.0625 -10.90625 C 8.0625 -10.90625 8.769531 -10.90625 10.1875 -10.90625 C 10.1875 -10.90625 8.78125 -7.269531 5.96875 0 C 5.96875 0 5.414062 0 4.3125 0 Z M 4.3125 0 "/></g></g></g><g fill="#ffffff" fill-opacity="1"><g transform="translate(182.631904, 139.939275)"><g/></g></g><g fill="#ffffff" fill-opacity="1"><g transform="translate(188.092039, 139.939275)"><g><path d="M 6.640625 -2.6875 C 6.640625 -2.6875 7.375 -2.6875 8.84375 -2.6875 C 8.5 -1.769531 7.972656 -1.0625 7.265625 -0.5625 C 6.566406 -0.0625 5.738281 0.1875 4.78125 0.1875 C 4.1875 0.1875 3.617188 0.078125 3.078125 -0.140625 C 2.535156 -0.367188 2.070312 -0.671875 1.6875 -1.046875 C 1.300781 -1.429688 0.988281 -1.882812 0.75 -2.40625 C 0.519531 -2.9375 0.40625 -3.5 0.40625 -4.09375 C 0.40625 -4.875 0.59375 -5.59375 0.96875 -6.25 C 1.351562 -6.90625 1.875 -7.421875 2.53125 -7.796875 C 3.195312 -8.179688 3.925781 -8.375 4.71875 -8.375 C 5.3125 -8.375 5.875 -8.269531 6.40625 -8.0625 C 6.9375 -7.851562 7.398438 -7.550781 7.796875 -7.15625 C 8.054688 -6.90625 8.257812 -6.65625 8.40625 -6.40625 C 8.5625 -6.164062 8.707031 -5.847656 8.84375 -5.453125 L 6.640625 -5.453125 C 6.253906 -6.191406 5.613281 -6.5625 4.71875 -6.5625 C 4.039062 -6.5625 3.484375 -6.332031 3.046875 -5.875 C 2.609375 -5.414062 2.390625 -4.828125 2.390625 -4.109375 C 2.390625 -3.390625 2.613281 -2.789062 3.0625 -2.3125 C 3.519531 -1.84375 4.085938 -1.609375 4.765625 -1.609375 C 5.171875 -1.609375 5.519531 -1.691406 5.8125 -1.859375 C 6.113281 -2.035156 6.390625 -2.3125 6.640625 -2.6875 Z M 6.640625 -2.6875 "/></g></g></g><g fill="#ffffff" fill-opacity="1"><g transform="translate(198.648568, 139.939275)"><g><path d="M 4.796875 -8.375 C 5.578125 -8.375 6.296875 -8.179688 6.953125 -7.796875 C 7.617188 -7.410156 8.144531 -6.882812 8.53125 -6.21875 C 8.914062 -5.5625 9.109375 -4.847656 9.109375 -4.078125 C 9.109375 -3.304688 8.914062 -2.59375 8.53125 -1.9375 C 8.144531 -1.28125 7.617188 -0.757812 6.953125 -0.375 C 6.285156 0 5.554688 0.1875 4.765625 0.1875 C 3.984375 0.1875 3.253906 0 2.578125 -0.375 C 1.910156 -0.757812 1.378906 -1.28125 0.984375 -1.9375 C 0.597656 -2.59375 0.40625 -3.304688 0.40625 -4.078125 C 0.40625 -4.660156 0.519531 -5.21875 0.75 -5.75 C 0.976562 -6.28125 1.285156 -6.734375 1.671875 -7.109375 C 2.066406 -7.492188 2.535156 -7.800781 3.078125 -8.03125 C 3.628906 -8.257812 4.203125 -8.375 4.796875 -8.375 Z M 4.71875 -6.5625 C 4.082031 -6.5625 3.535156 -6.316406 3.078125 -5.828125 C 2.617188 -5.347656 2.390625 -4.769531 2.390625 -4.09375 C 2.390625 -3.40625 2.617188 -2.816406 3.078125 -2.328125 C 3.546875 -1.847656 4.101562 -1.609375 4.75 -1.609375 C 5.40625 -1.609375 5.960938 -1.847656 6.421875 -2.328125 C 6.890625 -2.816406 7.125 -3.398438 7.125 -4.078125 C 7.125 -4.773438 6.890625 -5.363281 6.421875 -5.84375 C 5.960938 -6.320312 5.394531 -6.5625 4.71875 -6.5625 Z M 4.71875 -6.5625 "/></g></g></g><g fill="#ffffff" fill-opacity="1"><g transform="translate(209.493436, 139.939275)"><g><path d="M 0.796875 0 C 0.796875 0 0.796875 -3.632812 0.796875 -10.90625 C 0.796875 -10.90625 1.453125 -10.90625 2.765625 -10.90625 C 2.765625 -10.90625 2.765625 -7.269531 2.765625 0 C 2.765625 0 2.109375 0 0.796875 0 Z M 0.796875 0 "/></g></g></g><g fill="#ffffff" fill-opacity="1"><g transform="translate(214.376892, 139.939275)"><g><path d="M 0.796875 0 C 0.796875 0 0.796875 -3.632812 0.796875 -10.90625 C 0.796875 -10.90625 1.453125 -10.90625 2.765625 -10.90625 C 2.765625 -10.90625 2.765625 -7.269531 2.765625 0 C 2.765625 0 2.109375 0 0.796875 0 Z M 0.796875 0 "/></g></g></g><g fill="#ffffff" fill-opacity="1"><g transform="translate(219.260348, 139.939275)"><g><path d="M 8.875 -3.21875 C 8.875 -3.21875 6.757812 -3.21875 2.53125 -3.21875 C 2.65625 -2.71875 2.914062 -2.320312 3.3125 -2.03125 C 3.71875 -1.75 4.210938 -1.609375 4.796875 -1.609375 C 5.203125 -1.609375 5.539062 -1.664062 5.8125 -1.78125 C 6.082031 -1.90625 6.34375 -2.117188 6.59375 -2.421875 L 8.734375 -2.421875 C 8.617188 -2.054688 8.40625 -1.675781 8.09375 -1.28125 C 7.25 -0.300781 6.164062 0.1875 4.84375 0.1875 C 4.226562 0.1875 3.644531 0.078125 3.09375 -0.140625 C 2.550781 -0.359375 2.082031 -0.65625 1.6875 -1.03125 C 1.300781 -1.40625 0.988281 -1.851562 0.75 -2.375 C 0.519531 -2.90625 0.40625 -3.46875 0.40625 -4.0625 C 0.40625 -4.84375 0.597656 -5.5625 0.984375 -6.21875 C 1.367188 -6.882812 1.890625 -7.410156 2.546875 -7.796875 C 3.210938 -8.179688 3.9375 -8.375 4.71875 -8.375 C 5.519531 -8.375 6.242188 -8.179688 6.890625 -7.796875 C 7.535156 -7.421875 8.039062 -6.898438 8.40625 -6.234375 C 8.769531 -5.566406 8.953125 -4.8125 8.953125 -3.96875 C 8.953125 -3.695312 8.925781 -3.445312 8.875 -3.21875 Z M 2.484375 -4.953125 L 7.015625 -4.953125 C 6.890625 -5.472656 6.628906 -5.867188 6.234375 -6.140625 C 5.847656 -6.421875 5.351562 -6.5625 4.75 -6.5625 C 4.164062 -6.5625 3.675781 -6.421875 3.28125 -6.140625 C 2.894531 -5.867188 2.628906 -5.472656 2.484375 -4.953125 Z M 2.484375 -4.953125 "/></g></g></g><g fill="#ffffff" fill-opacity="1"><g transform="translate(229.94663, 139.939275)"><g><path d="M 6.640625 -2.6875 C 6.640625 -2.6875 7.375 -2.6875 8.84375 -2.6875 C 8.5 -1.769531 7.972656 -1.0625 7.265625 -0.5625 C 6.566406 -0.0625 5.738281 0.1875 4.78125 0.1875 C 4.1875 0.1875 3.617188 0.078125 3.078125 -0.140625 C 2.535156 -0.367188 2.070312 -0.671875 1.6875 -1.046875 C 1.300781 -1.429688 0.988281 -1.882812 0.75 -2.40625 C 0.519531 -2.9375 0.40625 -3.5 0.40625 -4.09375 C 0.40625 -4.875 0.59375 -5.59375 0.96875 -6.25 C 1.351562 -6.90625 1.875 -7.421875 2.53125 -7.796875 C 3.195312 -8.179688 3.925781 -8.375 4.71875 -8.375 C 5.3125 -8.375 5.875 -8.269531 6.40625 -8.0625 C 6.9375 -7.851562 7.398438 -7.550781 7.796875 -7.15625 C 8.054688 -6.90625 8.257812 -6.65625 8.40625 -6.40625 C 8.5625 -6.164062 8.707031 -5.847656 8.84375 -5.453125 L 6.640625 -5.453125 C 6.253906 -6.191406 5.613281 -6.5625 4.71875 -6.5625 C 4.039062 -6.5625 3.484375 -6.332031 3.046875 -5.875 C 2.609375 -5.414062 2.390625 -4.828125 2.390625 -4.109375 C 2.390625 -3.390625 2.613281 -2.789062 3.0625 -2.3125 C 3.519531 -1.84375 4.085938 -1.609375 4.765625 -1.609375 C 5.171875 -1.609375 5.519531 -1.691406 5.8125 -1.859375 C 6.113281 -2.035156 6.390625 -2.3125 6.640625 -2.6875 Z M 6.640625 -2.6875 "/></g></g></g><g fill="#ffffff" fill-opacity="1"><g transform="translate(240.503159, 139.939275)"><g><path d="M 1.15625 0 C 1.15625 0 1.15625 -2.128906 1.15625 -6.390625 C 1.15625 -6.390625 0.832031 -6.390625 0.1875 -6.390625 C 0.1875 -6.390625 0.1875 -6.988281 0.1875 -8.1875 C 0.1875 -8.1875 0.507812 -8.1875 1.15625 -8.1875 C 1.15625 -8.1875 1.15625 -9.09375 1.15625 -10.90625 C 1.15625 -10.90625 1.804688 -10.90625 3.109375 -10.90625 C 3.109375 -10.90625 3.109375 -10 3.109375 -8.1875 C 3.109375 -8.1875 3.503906 -8.1875 4.296875 -8.1875 C 4.296875 -8.1875 4.296875 -7.585938 4.296875 -6.390625 C 4.296875 -6.390625 3.898438 -6.390625 3.109375 -6.390625 C 3.109375 -6.390625 3.109375 -4.257812 3.109375 0 C 3.109375 0 2.457031 0 1.15625 0 Z M 1.15625 0 "/></g></g></g><g fill="#ffffff" fill-opacity="1"><g transform="translate(246.302087, 139.939275)"><g><path d="M 0.796875 0 C 0.796875 0 0.796875 -2.726562 0.796875 -8.1875 C 0.796875 -8.1875 1.453125 -8.1875 2.765625 -8.1875 C 2.765625 -8.1875 2.765625 -5.457031 2.765625 0 C 2.765625 0 2.109375 0 0.796875 0 Z M 0.796875 -9.0625 C 0.796875 -9.0625 0.796875 -9.675781 0.796875 -10.90625 C 0.796875 -10.90625 1.453125 -10.90625 2.765625 -10.90625 C 2.765625 -10.90625 2.765625 -10.289062 2.765625 -9.0625 C 2.765625 -9.0625 2.109375 -9.0625 0.796875 -9.0625 Z M 0.796875 -9.0625 "/></g></g></g><g fill="#ffffff" fill-opacity="1"><g transform="translate(251.185543, 139.939275)"><g><path d="M 4.796875 -8.375 C 5.578125 -8.375 6.296875 -8.179688 6.953125 -7.796875 C 7.617188 -7.410156 8.144531 -6.882812 8.53125 -6.21875 C 8.914062 -5.5625 9.109375 -4.847656 9.109375 -4.078125 C 9.109375 -3.304688 8.914062 -2.59375 8.53125 -1.9375 C 8.144531 -1.28125 7.617188 -0.757812 6.953125 -0.375 C 6.285156 0 5.554688 0.1875 4.765625 0.1875 C 3.984375 0.1875 3.253906 0 2.578125 -0.375 C 1.910156 -0.757812 1.378906 -1.28125 0.984375 -1.9375 C 0.597656 -2.59375 0.40625 -3.304688 0.40625 -4.078125 C 0.40625 -4.660156 0.519531 -5.21875 0.75 -5.75 C 0.976562 -6.28125 1.285156 -6.734375 1.671875 -7.109375 C 2.066406 -7.492188 2.535156 -7.800781 3.078125 -8.03125 C 3.628906 -8.257812 4.203125 -8.375 4.796875 -8.375 Z M 4.71875 -6.5625 C 4.082031 -6.5625 3.535156 -6.316406 3.078125 -5.828125 C 2.617188 -5.347656 2.390625 -4.769531 2.390625 -4.09375 C 2.390625 -3.40625 2.617188 -2.816406 3.078125 -2.328125 C 3.546875 -1.847656 4.101562 -1.609375 4.75 -1.609375 C 5.40625 -1.609375 5.960938 -1.847656 6.421875 -2.328125 C 6.890625 -2.816406 7.125 -3.398438 7.125 -4.078125 C 7.125 -4.773438 6.890625 -5.363281 6.421875 -5.84375 C 5.960938 -6.320312 5.394531 -6.5625 4.71875 -6.5625 Z M 4.71875 -6.5625 "/></g></g></g><g fill="#ffffff" fill-opacity="1"><g transform="translate(262.030411, 139.939275)"><g><path d="M 0.796875 0 C 0.796875 0 0.796875 -2.726562 0.796875 -8.1875 C 0.796875 -8.1875 1.398438 -8.1875 2.609375 -8.1875 C 2.609375 -8.1875 2.609375 -7.921875 2.609375 -7.390625 C 2.972656 -7.742188 3.328125 -7.992188 3.671875 -8.140625 C 4.023438 -8.296875 4.441406 -8.375 4.921875 -8.375 C 6.109375 -8.375 6.976562 -7.953125 7.53125 -7.109375 C 7.726562 -6.796875 7.863281 -6.4375 7.9375 -6.03125 C 8.019531 -5.632812 8.0625 -5.085938 8.0625 -4.390625 L 8.0625 0 L 6.09375 0 C 6.09375 0 6.09375 -1.332031 6.09375 -4 C 6.09375 -5.0625 5.957031 -5.753906 5.6875 -6.078125 C 5.414062 -6.398438 5.03125 -6.5625 4.53125 -6.5625 C 3.863281 -6.5625 3.378906 -6.300781 3.078125 -5.78125 C 2.953125 -5.59375 2.867188 -5.359375 2.828125 -5.078125 C 2.785156 -4.796875 2.765625 -4.390625 2.765625 -3.859375 L 2.765625 0 C 2.765625 0 2.109375 0 0.796875 0 Z M 0.796875 0 "/></g></g></g><g fill="#ffffff" fill-opacity="1"><g transform="translate(272.183265, 139.939275)"><g><path d="M 1.09375 0 C 1.09375 0 1.09375 -0.628906 1.09375 -1.890625 C 1.09375 -1.890625 1.75 -1.890625 3.0625 -1.890625 C 3.0625 -1.890625 3.0625 -1.257812 3.0625 0 C 3.0625 0 2.40625 0 1.09375 0 Z M 1.09375 0 "/></g></g></g><g fill="#ffffff" fill-opacity="0.4"><g transform="translate(219.133007, 107.1867)"><g><path d="M -8.34375 -39.71875 C -11.382812 -51.03125 -10.097656 -61.632812 -4.484375 -71.53125 C 1.117188 -81.4375 9.351562 -87.847656 20.21875 -90.765625 C 31.132812 -93.703125 41.460938 -92.296875 51.203125 -86.546875 C 60.953125 -80.804688 67.351562 -72.253906 70.40625 -60.890625 C 73.476562 -49.453125 72.300781 -38.820312 66.875 -29 C 61.445312 -19.175781 53.148438 -12.757812 41.984375 -9.75 C 30.546875 -6.675781 20.070312 -8.007812 10.5625 -13.75 C 1.0625 -19.5 -5.238281 -28.15625 -8.34375 -39.71875 Z M 10.890625 -44.890625 C 11.992188 -40.773438 13.628906 -37.195312 15.796875 -34.15625 C 17.972656 -31.113281 20.953125 -28.847656 24.734375 -27.359375 C 28.523438 -25.878906 32.734375 -25.757812 37.359375 -27 C 43.984375 -28.78125 48.375 -32.398438 50.53125 -37.859375 C 52.6875 -43.316406 52.898438 -49.269531 51.171875 -55.71875 C 49.453125 -62.09375 46.253906 -67.109375 41.578125 -70.765625 C 36.910156 -74.421875 31.328125 -75.375 24.828125 -73.625 C 18.378906 -71.894531 14.015625 -68.265625 11.734375 -62.734375 C 9.453125 -57.210938 9.171875 -51.265625 10.890625 -44.890625 Z M 10.890625 -44.890625 "/></g></g></g><g fill="#ffffff" fill-opacity="1"><g transform="translate(214.882135, 104.736381)"><g><path d="M -8.34375 -39.71875 C -11.382812 -51.03125 -10.097656 -61.632812 -4.484375 -71.53125 C 1.117188 -81.4375 9.351562 -87.847656 20.21875 -90.765625 C 31.132812 -93.703125 41.460938 -92.296875 51.203125 -86.546875 C 60.953125 -80.804688 67.351562 -72.253906 70.40625 -60.890625 C 73.476562 -49.453125 72.300781 -38.820312 66.875 -29 C 61.445312 -19.175781 53.148438 -12.757812 41.984375 -9.75 C 30.546875 -6.675781 20.070312 -8.007812 10.5625 -13.75 C 1.0625 -19.5 -5.238281 -28.15625 -8.34375 -39.71875 Z M 10.890625 -44.890625 C 11.992188 -40.773438 13.628906 -37.195312 15.796875 -34.15625 C 17.972656 -31.113281 20.953125 -28.847656 24.734375 -27.359375 C 28.523438 -25.878906 32.734375 -25.757812 37.359375 -27 C 43.984375 -28.78125 48.375 -32.398438 50.53125 -37.859375 C 52.6875 -43.316406 52.898438 -49.269531 51.171875 -55.71875 C 49.453125 -62.09375 46.253906 -67.109375 41.578125 -70.765625 C 36.910156 -74.421875 31.328125 -75.375 24.828125 -73.625 C 18.378906 -71.894531 14.015625 -68.265625 11.734375 -62.734375 C 9.453125 -57.210938 9.171875 -51.265625 10.890625 -44.890625 Z M 10.890625 -44.890625 "/></g></g></g><g fill="#ffffff" fill-opacity="1"><g transform="translate(80.900082, 121.647616)"><g><path d="M 2.59375 -35.75 L 15.640625 -35.75 C 19.273438 -35.75 22.21875 -34.804688 24.46875 -32.921875 C 26.726562 -31.046875 27.859375 -28.316406 27.859375 -24.734375 C 27.859375 -21.160156 26.71875 -18.351562 24.4375 -16.3125 C 22.15625 -14.28125 19.222656 -13.265625 15.640625 -13.265625 L 10.75 -13.265625 L 10.75 0 L 2.59375 0 Z M 10.75 -19.75 L 13.046875 -19.75 C 14.859375 -19.75 16.347656 -20.117188 17.515625 -20.859375 C 18.691406 -21.597656 19.28125 -22.804688 19.28125 -24.484375 C 19.28125 -26.179688 18.691406 -27.398438 17.515625 -28.140625 C 16.347656 -28.878906 14.859375 -29.25 13.046875 -29.25 L 10.75 -29.25 Z M 10.75 -19.75 "/></g></g></g><g fill="#ffffff" fill-opacity="1"><g transform="translate(109.759021, 121.647616)"><g><path d="M 23.046875 -35.75 L 23.046875 -28.59375 L 10.75 -28.59375 L 10.75 -21.484375 L 22.53125 -21.484375 L 22.53125 -14.34375 L 10.75 -14.34375 L 10.75 -7.15625 L 23.046875 -7.15625 L 23.046875 0 L 2.59375 0 L 2.59375 -35.75 Z M 23.046875 -35.75 "/></g></g></g><g fill="#ffffff" fill-opacity="1"><g transform="translate(134.89143, 121.647616)"><g><path d="M 2.59375 -35.75 L 12.953125 -35.75 C 17.921875 -35.75 22.164062 -34.050781 25.6875 -30.65625 C 29.21875 -27.257812 30.984375 -23.003906 30.984375 -17.890625 C 30.984375 -12.753906 29.226562 -8.488281 25.71875 -5.09375 C 22.207031 -1.695312 17.953125 0 12.953125 0 L 2.59375 0 Z M 10.75 -7.28125 L 12 -7.28125 C 14.976562 -7.28125 17.410156 -8.28125 19.296875 -10.28125 C 21.191406 -12.289062 22.15625 -14.8125 22.1875 -17.84375 C 22.1875 -20.882812 21.238281 -23.414062 19.34375 -25.4375 C 17.457031 -27.457031 15.007812 -28.46875 12 -28.46875 L 10.75 -28.46875 Z M 10.75 -7.28125 "/></g></g></g><g fill="#ffffff" fill-opacity="1"><g transform="translate(166.870247, 121.647616)"><g><path d="M 10.75 -35.75 L 10.75 0 L 2.59375 0 L 2.59375 -35.75 Z M 10.75 -35.75 "/></g></g></g><g fill="#ffffff" fill-opacity="1"><g transform="translate(180.216427, 121.647616)"><g><path d="M 20.75 -35.75 L 35.1875 0 L 26.4375 0 L 23.78125 -7.15625 L 10.1875 -7.15625 L 7.546875 0 L -1.21875 0 L 13.21875 -35.75 Z M 21.015625 -14.296875 L 17.03125 -24.703125 L 16.9375 -24.703125 L 12.953125 -14.296875 Z M 21.015625 -14.296875 "/></g></g></g><g fill="#ffffff" fill-opacity="1"><g transform="translate(214.188505, 121.647616)"><g><path d="M 7.546875 -9.265625 C 8.929688 -9.265625 10.101562 -8.78125 11.0625 -7.8125 C 12.03125 -6.851562 12.515625 -5.679688 12.515625 -4.296875 C 12.515625 -2.929688 12.03125 -1.765625 11.0625 -0.796875 C 10.101562 0.171875 8.929688 0.65625 7.546875 0.65625 C 6.179688 0.65625 5.015625 0.171875 4.046875 -0.796875 C 3.078125 -1.765625 2.59375 -2.929688 2.59375 -4.296875 C 2.59375 -5.679688 3.078125 -6.851562 4.046875 -7.8125 C 5.015625 -8.78125 6.179688 -9.265625 7.546875 -9.265625 Z M 7.546875 -9.265625 "/></g></g></g></svg>